
<?xml version="1.0" standalone="no"?>
<!DOCTYPE svg PUBLIC "-//W3C//DTD SVG 20010904//EN"
 "http://www.w3.org/TR/2001/REC-SVG-20010904/DTD/svg10.dtd">
<svg version="1.0" xmlns="http://www.w3.org/2000/svg"
 width="2048" height="1722" viewBox="0 0 2048 1722"
 preserveAspectRatio="xMidYMid meet">

<!-- Add a white background rectangle -->
<rect width="2048" height="1722" fill="#FFFFFF" />

<g transform="translate(0.000000,1722.000000) scale(0.100000,-0.100000)"
fill="none" stroke="none">
<path d="M12480 24993 c-1748 -76 -3219 -495 -4355 -1240 -1209 -793 -2000
-1930 -2350 -3378 -84 -346 -98 -460 -74 -577 41 -197 229 -378 450 -433 52
-13 2655 -297 3096 -338 107 -10 128 -9 185 7 169 47 323 196 408 394 16 39
46 136 65 217 47 196 77 292 137 438 172 421 467 777 854 1032 122 81 365 202
504 252 363 131 689 187 1095 187 319 0 550 -34 820 -121 780 -251 1222 -796
1350 -1666 40 -272 47 -419 52 -1123 l5 -692 -38 -6 c-57 -8 -334 -38 -1039
-111 -1404 -145 -2079 -234 -2810 -371 -1680 -314 -2856 -815 -3790 -1614
-161 -139 -477 -456 -605 -610 -731 -877 -1135 -1875 -1255 -3100 -22 -224
-31 -782 -16 -1035 49 -828 218 -1531 520 -2160 689 -1433 2032 -2306 3781
-2459 379 -34 953 -30 1438 9 1363 110 2327 493 3392 1349 257 207 449 380
811 728 136 131 249 238 252 238 2 0 80 -111 173 -247 433 -639 558 -806 808
-1083 254 -280 799 -781 914 -839 118 -60 329 -81 462 -46 74 19 164 62 223
105 23 17 45 30 50 30 5 0 97 78 205 172 719 635 1527 1336 2093 1815 125 106
243 212 264 235 139 162 149 401 27 643 -41 83 -82 144 -216 325 -324 438
-446 614 -569 820 -284 478 -434 934 -504 1535 -17 140 -18 379 -19 3665 -2
3575 -3 3742 -40 4200 -125 1575 -603 2597 -1606 3438 -967 810 -2479 1317
-4208 1412 -163 9 -764 11 -940 3z m2237 -10500 c-7 -887 -14 -1114 -48 -1453
-89 -900 -375 -1657 -865 -2290 -103 -133 -341 -376 -464 -474 -460 -364 -939
-540 -1475 -540 -262 1 -457 31 -672 105 -667 230 -1106 812 -1248 1653 -38
227 -48 398 -42 689 7 271 13 346 48 557 232 1400 1279 2231 3145 2500 326 46
559 67 1054 93 30 2 172 4 314 5 l259 2 -6 -847z" fill="#000000"/>
<path d="M11000 12000 c-1000 0 -1800 1000 -1900 2000 c0 500 200 1000 1000 1100 c800 100 1800 -200 2000 -1000 c100 -400 0 -1000 -100 -1200 c-200 -400 -600 -900 -1000 -1000z" fill="#FF9900"/>
</g>
</svg>
